<svg xmlns="http://www.w3.org/2000/svg" width="760" height="460" viewBox="0 0 760 460">
<rect width="100%" height="100%" fill="#ffffff"/>
<style>text{font-family:Arial,Helvetica,sans-serif;}</style>
<text x="80" y="30" font-size="18" font-weight="bold" fill="#111827">分支因子对比（Branching Factor）</text>
<line x1="80" y1="60" x2="80" y2="390" stroke="#9ca3af"/>
<line x1="80" y1="390" x2="730" y2="390" stroke="#9ca3af"/>
<line x1="80" y1="390.00" x2="730" y2="390.00" stroke="#f3f4f6"/>
<text x="72" y="394.00" font-size="10" fill="#6b7280" text-anchor="end">-13.66</text>
<line x1="80" y1="324.00" x2="730" y2="324.00" stroke="#f3f4f6"/>
<text x="72" y="328.00" font-size="10" fill="#6b7280" text-anchor="end">32.19</text>
<line x1="80" y1="258.00" x2="730" y2="258.00" stroke="#f3f4f6"/>
<text x="72" y="262.00" font-size="10" fill="#6b7280" text-anchor="end">78.05</text>
<line x1="80" y1="192.00" x2="730" y2="192.00" stroke="#f3f4f6"/>
<text x="72" y="196.00" font-size="10" fill="#6b7280" text-anchor="end">123.90</text>
<line x1="80" y1="126.00" x2="730" y2="126.00" stroke="#f3f4f6"/>
<text x="72" y="130.00" font-size="10" fill="#6b7280" text-anchor="end">169.76</text>
<line x1="80" y1="60.00" x2="730" y2="60.00" stroke="#f3f4f6"/>
<text x="72" y="64.00" font-size="10" fill="#6b7280" text-anchor="end">215.61</text>
<line x1="242.50" y1="367.21" x2="242.50" y2="352.36" stroke="#d94848" stroke-width="1.2"/>
<rect x="197.50" y="362.25" width="90.00" height="4.19" fill="#d94848" fill-opacity="0.18" stroke="#d94848" stroke-width="1.4"/>
<line x1="197.50" y1="365.55" x2="287.50" y2="365.55" stroke="#d94848" stroke-width="2"/>
<circle cx="242.50" cy="363.99" r="3.2" fill="#d94848" stroke="#ffffff" stroke-width="1"/>
<text x="242.50" y="414" font-size="12" fill="#374151" text-anchor="middle">rumor</text>
<text x="242.50" y="430" font-size="10" fill="#6b7280" text-anchor="middle">n=60</text>
<line x1="567.50" y1="367.24" x2="567.50" y2="82.76" stroke="#3b82f6" stroke-width="1.2"/>
<rect x="522.50" y="357.61" width="90.00" height="5.07" fill="#3b82f6" fill-opacity="0.18" stroke="#3b82f6" stroke-width="1.4"/>
<line x1="522.50" y1="361.09" x2="612.50" y2="361.09" stroke="#3b82f6" stroke-width="2"/>
<circle cx="567.50" cy="355.43" r="3.2" fill="#3b82f6" stroke="#ffffff" stroke-width="1"/>
<text x="567.50" y="414" font-size="12" fill="#374151" text-anchor="middle">non_rumor</text>
<text x="567.50" y="430" font-size="10" fill="#6b7280" text-anchor="middle">n=60</text>
<text x="560" y="68" font-size="11" fill="#6b7280">箱体: Q1-Q3 | 横线: 中位数 | 圆点: 均值</text>
</svg>