<svg xmlns="http://www.w3.org/2000/svg" width="760" height="460" viewBox="0 0 760 460">
<rect width="100%" height="100%" fill="#ffffff"/>
<style>text{font-family:Arial,Helvetica,sans-serif;}</style>
<text x="80" y="30" font-size="18" font-weight="bold" fill="#111827">节点数分布对比（Node Count）</text>
<line x1="80" y1="60" x2="80" y2="390" stroke="#9ca3af"/>
<line x1="80" y1="390" x2="730" y2="390" stroke="#9ca3af"/>
<line x1="80" y1="390.00" x2="730" y2="390.00" stroke="#f3f4f6"/>
<text x="72" y="394.00" font-size="10" fill="#6b7280" text-anchor="end">999.92</text>
<line x1="80" y1="324.00" x2="730" y2="324.00" stroke="#f3f4f6"/>
<text x="72" y="328.00" font-size="10" fill="#6b7280" text-anchor="end">1000.15</text>
<line x1="80" y1="258.00" x2="730" y2="258.00" stroke="#f3f4f6"/>
<text x="72" y="262.00" font-size="10" fill="#6b7280" text-anchor="end">1000.38</text>
<line x1="80" y1="192.00" x2="730" y2="192.00" stroke="#f3f4f6"/>
<text x="72" y="196.00" font-size="10" fill="#6b7280" text-anchor="end">1000.62</text>
<line x1="80" y1="126.00" x2="730" y2="126.00" stroke="#f3f4f6"/>
<text x="72" y="130.00" font-size="10" fill="#6b7280" text-anchor="end">1000.85</text>
<line x1="80" y1="60.00" x2="730" y2="60.00" stroke="#f3f4f6"/>
<text x="72" y="64.00" font-size="10" fill="#6b7280" text-anchor="end">1001.08</text>
<line x1="242.50" y1="367.24" x2="242.50" y2="367.24" stroke="#d94848" stroke-width="1.2"/>
<rect x="197.50" y="367.24" width="90.00" height="1.00" fill="#d94848" fill-opacity="0.18" stroke="#d94848" stroke-width="1.4"/>
<line x1="197.50" y1="367.24" x2="287.50" y2="367.24" stroke="#d94848" stroke-width="2"/>
<circle cx="242.50" cy="367.24" r="3.2" fill="#d94848" stroke="#ffffff" stroke-width="1"/>
<text x="242.50" y="414" font-size="12" fill="#374151" text-anchor="middle">rumor</text>
<text x="242.50" y="430" font-size="10" fill="#6b7280" text-anchor="middle">n=60</text>
<line x1="567.50" y1="367.24" x2="567.50" y2="367.24" stroke="#3b82f6" stroke-width="1.2"/>
<rect x="522.50" y="367.24" width="90.00" height="1.00" fill="#3b82f6" fill-opacity="0.18" stroke="#3b82f6" stroke-width="1.4"/>
<line x1="522.50" y1="367.24" x2="612.50" y2="367.24" stroke="#3b82f6" stroke-width="2"/>
<circle cx="567.50" cy="367.24" r="3.2" fill="#3b82f6" stroke="#ffffff" stroke-width="1"/>
<text x="567.50" y="414" font-size="12" fill="#374151" text-anchor="middle">non_rumor</text>
<text x="567.50" y="430" font-size="10" fill="#6b7280" text-anchor="middle">n=60</text>
<text x="560" y="68" font-size="11" fill="#6b7280">箱体: Q1-Q3 | 横线: 中位数 | 圆点: 均值</text>
</svg>